<svg width="27" height="27" viewBox="0 0 27 27" fill="none" xmlns="http://www.w3.org/2000/svg">
<path d="M22.0668 14.625C22.1158 14.2519 22.1421 13.8763 22.1456 13.5C22.1421 13.1238 22.1158 12.7481 22.0668 12.375L24.5024 10.4681C24.6124 10.3841 24.6876 10.2625 24.7135 10.1266C24.7395 9.99061 24.7144 9.84987 24.6431 9.73126L22.3368 5.73188C22.27 5.61192 22.1616 5.52054 22.0321 5.47495C21.9026 5.42936 21.7609 5.43271 21.6337 5.48438L18.7593 6.64313C18.1612 6.18665 17.5071 5.80858 16.8131 5.51813L16.3799 2.46376C16.3608 2.3286 16.2932 2.205 16.1897 2.116C16.0862 2.027 15.9539 1.97866 15.8174 1.98001H11.1937C11.0572 1.97866 10.9249 2.027 10.8214 2.116C10.7179 2.205 10.6503 2.3286 10.6312 2.46376L10.1981 5.51813C9.50308 5.80678 8.84879 6.18498 8.2518 6.64313L5.36618 5.48438C5.23897 5.43271 5.09725 5.42936 4.96773 5.47495C4.83822 5.52054 4.72985 5.61192 4.66305 5.73188L2.3568 9.73126C2.28548 9.84987 2.2604 9.99061 2.28634 10.1266C2.31228 10.2625 2.38744 10.3841 2.49743 10.4681L4.92743 12.375C4.87862 12.7481 4.85232 13.1238 4.84868 13.5C4.85213 13.8763 4.87843 14.2519 4.92743 14.625L2.49743 16.5319C2.38744 16.6159 2.31228 16.7375 2.28634 16.8735C2.2604 17.0094 2.28548 17.1501 2.3568 17.2688L4.66305 21.2681C4.72985 21.3881 4.83822 21.4795 4.96773 21.5251C5.09725 21.5707 5.23897 21.5673 5.36618 21.5156L8.24055 20.3569C8.83866 20.8134 9.49272 21.1914 10.1868 21.4819L10.6199 24.5363C10.639 24.6714 10.7066 24.795 10.8101 24.884C10.9136 24.973 11.0459 25.0214 11.1824 25.02H15.7949C15.9314 25.0214 16.0637 24.973 16.1672 24.884C16.2707 24.795 16.3383 24.6714 16.3574 24.5363L16.7906 21.4819C17.4855 21.1932 18.1398 20.815 18.7368 20.3569L21.6112 21.5156C21.7384 21.5673 21.8801 21.5707 22.0096 21.5251C22.1391 21.4795 22.2475 21.3881 22.3143 21.2681L24.6206 17.2688C24.6919 17.1501 24.717 17.0094 24.691 16.8735C24.6651 16.7375 24.5899 16.6159 24.4799 16.5319L22.0668 14.625ZM13.4999 17.5388C12.7009 17.5399 11.9195 17.3039 11.2546 16.8608C10.5897 16.4177 10.0711 15.7874 9.7646 15.0495C9.45805 14.3116 9.37727 13.4994 9.53247 12.7155C9.68767 11.9317 10.0719 11.2116 10.6365 10.6462C11.2011 10.0808 11.9207 9.69557 12.7043 9.53928C13.4879 9.38298 14.3002 9.46264 15.0386 9.76815C15.7769 10.0737 16.408 10.5913 16.852 11.2556C17.296 11.9199 17.5331 12.701 17.5331 13.5C17.5338 14.0301 17.43 14.5552 17.2277 15.0451C17.0253 15.5351 16.7284 15.9804 16.3538 16.3555C15.9792 16.7306 15.5343 17.0282 15.0446 17.2312C14.5549 17.4343 14.03 17.5388 13.4999 17.5388Z" stroke="black" stroke-linecap="round" stroke-linejoin="round"/>
</svg>
