<svg width="24" height="24" viewBox="0 0 24 24" fill="none" xmlns="http://www.w3.org/2000/svg">
<path d="M6.1755 18.807C6.5025 18.807 6.776 18.6965 6.996 18.4755C7.216 18.2535 7.326 17.9785 7.326 17.6505C7.326 17.3225 7.216 17.049 6.996 16.83C6.774 16.61 6.499 16.5 6.171 16.5C5.843 16.5 5.569 16.611 5.349 16.833C5.129 17.054 5.019 17.3285 5.019 17.6565C5.019 17.9835 5.13 18.257 5.352 18.477C5.573 18.697 5.8475 18.807 6.1755 18.807ZM6.1755 13.1535C6.5025 13.1535 6.776 13.043 6.996 12.822C7.216 12.6 7.326 12.325 7.326 11.997C7.326 11.669 7.216 11.3955 6.996 11.1765C6.774 10.9565 6.499 10.8465 6.171 10.8465C5.843 10.8465 5.569 10.957 5.349 11.178C5.129 11.4 5.019 11.675 5.019 12.003C5.019 12.331 5.13 12.6045 5.352 12.8235C5.573 13.0435 5.8475 13.1535 6.1755 13.1535ZM6.1755 7.5C6.5025 7.5 6.776 7.389 6.996 7.167C7.216 6.946 7.326 6.6715 7.326 6.3435C7.326 6.0165 7.216 5.743 6.996 5.523C6.774 5.303 6.499 5.193 6.171 5.193C5.843 5.193 5.569 5.3035 5.349 5.5245C5.129 5.7465 5.019 6.0215 5.019 6.3495C5.019 6.6775 5.13 6.951 5.352 7.17C5.573 7.39 5.8475 7.5 6.1755 7.5ZM10.788 18.405H18.8655V16.905H10.788V18.405ZM10.788 12.75H18.8655V11.25H10.788V12.75ZM10.788 7.095H18.8655V5.595H10.788V7.095ZM2.4225 24C1.7325 24 1.1565 23.769 0.6945 23.307C0.2315 22.844 0 22.2675 0 21.5775V2.4225C0 1.7325 0.2315 1.1565 0.6945 0.6945C1.1565 0.2315 1.7325 0 2.4225 0H21.5775C22.2675 0 22.8435 0.2315 23.3055 0.6945C23.7685 1.1565 24 1.7325 24 2.4225V21.5775C24 22.2675 23.769 22.8435 23.307 23.3055C22.844 23.7685 22.2675 24 21.5775 24H2.4225ZM2.4225 22.5H21.5775C21.8075 22.5 22.019 22.404 22.212 22.212C22.404 22.019 22.5 21.8075 22.5 21.5775V2.4225C22.5 2.1925 22.404 1.981 22.212 1.788C22.019 1.596 21.8075 1.5 21.5775 1.5H2.4225C2.1925 1.5 1.981 1.596 1.788 1.788C1.596 1.981 1.5 2.1925 1.5 2.4225V21.5775C1.5 21.8075 1.596 22.019 1.788 22.212C1.981 22.404 2.1925 22.5 2.4225 22.5Z" fill="black"/>
</svg>
