<svg width="20" height="20" viewBox="0 0 20 20" fill="none" xmlns="http://www.w3.org/2000/svg">
<path d="M16.2083 3.38334H12.725V2.96667C12.725 2.63515 12.5933 2.31721 12.3589 2.08279C12.1245 1.84837 11.8065 1.71667 11.475 1.71667H8.525C8.19348 1.71667 7.87554 1.84837 7.64112 2.08279C7.4067 2.31721 7.275 2.63515 7.275 2.96667V3.38334H3.79167C3.68116 3.38334 3.57518 3.42724 3.49704 3.50538C3.4189 3.58352 3.375 3.6895 3.375 3.80001C3.375 3.91052 3.4189 4.0165 3.49704 4.09464C3.57518 4.17278 3.68116 4.21667 3.79167 4.21667H4.39167L4.74167 16.2583C4.75539 16.8012 4.98111 17.3171 5.37049 17.6956C5.75988 18.0741 6.28198 18.285 6.825 18.2833H13.175C13.718 18.285 14.2401 18.0741 14.6295 17.6956C15.0189 17.3171 15.2446 16.8012 15.2583 16.2583L15.6083 4.21667H16.2083C16.3188 4.21667 16.4248 4.17278 16.503 4.09464C16.5811 4.0165 16.625 3.91052 16.625 3.80001C16.625 3.6895 16.5811 3.58352 16.503 3.50538C16.4248 3.42724 16.3188 3.38334 16.2083 3.38334ZM8.10833 2.96667C8.10833 2.85617 8.15223 2.75019 8.23037 2.67205C8.30851 2.59391 8.41449 2.55001 8.525 2.55001H11.475C11.5855 2.55001 11.6915 2.59391 11.7696 2.67205C11.8478 2.75019 11.8917 2.85617 11.8917 2.96667V3.38334H8.10833V2.96667ZM14.425 16.2333C14.4163 16.5591 14.2808 16.8685 14.0473 17.0958C13.8138 17.323 13.5008 17.4501 13.175 17.45H6.825C6.49917 17.4501 6.18618 17.323 5.9527 17.0958C5.71921 16.8685 5.58369 16.5591 5.575 16.2333L5.21667 4.21667H14.7833L14.425 16.2333Z" fill="#D50D0D"/>
<path d="M6.97949 6.66667C6.97949 6.55616 7.02339 6.45018 7.10153 6.37204C7.17967 6.2939 7.28565 6.25 7.39616 6.25C7.50667 6.25 7.61265 6.2939 7.69079 6.37204C7.76893 6.45018 7.81283 6.55616 7.81283 6.66667L8.02116 15C8.02116 15.1105 7.97726 15.2165 7.89912 15.2946C7.82098 15.3728 7.715 15.4167 7.60449 15.4167C7.49399 15.4167 7.388 15.3728 7.30986 15.2946C7.23172 15.2165 7.18783 15.1105 7.18783 15L6.97949 6.66667ZM13.0212 6.6725C13.0212 6.56199 12.9773 6.45601 12.8991 6.37787C12.821 6.29973 12.715 6.25583 12.6045 6.25583C12.494 6.25583 12.388 6.29973 12.3099 6.37787C12.2317 6.45601 12.1878 6.56199 12.1878 6.6725L11.9795 15.0058C11.9795 15.1163 12.0234 15.2223 12.1015 15.3005C12.1797 15.3786 12.2857 15.4225 12.3962 15.4225C12.5067 15.4225 12.6126 15.3786 12.6908 15.3005C12.7689 15.2223 12.8128 15.1163 12.8128 15.0058L13.0212 6.6725Z" fill="#D50D0D"/>
</svg>
