<svg width="35" height="35" viewBox="0 0 35 35" fill="none" xmlns="http://www.w3.org/2000/svg">
<path d="M12.75 10.5C11.8217 10.5 10.9315 10.8687 10.2751 11.5251C9.61875 12.1815 9.25 13.0717 9.25 14C9.25 14.9283 9.61875 15.8185 10.2751 16.4749C10.9315 17.1312 11.8217 17.5 12.75 17.5C13.6783 17.5 14.5685 17.1312 15.2249 16.4749C15.8813 15.8185 16.25 14.9283 16.25 14C16.25 13.0717 15.8813 12.1815 15.2249 11.5251C14.5685 10.8687 13.6783 10.5 12.75 10.5ZM11 14C11 13.5359 11.1844 13.0908 11.5126 12.7626C11.8408 12.4344 12.2859 12.25 12.75 12.25C13.2141 12.25 13.6592 12.4344 13.9874 12.7626C14.3156 13.0908 14.5 13.5359 14.5 14C14.5 14.4641 14.3156 14.9092 13.9874 15.2374C13.6592 15.5656 13.2141 15.75 12.75 15.75C12.2859 15.75 11.8408 15.5656 11.5126 15.2374C11.1844 14.9092 11 14.4641 11 14ZM0.5 7.875C0.5 7.17881 0.776562 6.51113 1.26884 6.01884C1.76113 5.52656 2.42881 5.25 3.125 5.25H22.375C23.0712 5.25 23.7389 5.52656 24.2312 6.01884C24.7234 6.51113 25 7.17881 25 7.875V14H23.25V12.25H21.5C20.5717 12.25 19.6815 11.8813 19.0251 11.2249C18.3687 10.5685 18 9.67826 18 8.75V7H7.5V8.75C7.5 9.67826 7.13125 10.5685 6.47487 11.2249C5.8185 11.8813 4.92826 12.25 4 12.25H2.25V15.75H4C4.92826 15.75 5.8185 16.1187 6.47487 16.7751C7.13125 17.4315 7.5 18.3217 7.5 19.25V21H16.25V22.75H3.125C2.42881 22.75 1.76113 22.4734 1.26884 21.9812C0.776562 21.4889 0.5 20.8212 0.5 20.125V7.875ZM3.125 7C2.89294 7 2.67038 7.09219 2.50628 7.25628C2.34219 7.42038 2.25 7.64294 2.25 7.875V10.5H4C4.46413 10.5 4.90925 10.3156 5.23744 9.98744C5.56563 9.65925 5.75 9.21413 5.75 8.75V7H3.125ZM22.375 7H19.75V8.75C19.75 9.21413 19.9344 9.65925 20.2626 9.98744C20.5908 10.3156 21.0359 10.5 21.5 10.5H23.25V7.875C23.25 7.64294 23.1578 7.42038 22.9937 7.25628C22.8296 7.09219 22.6071 7 22.375 7ZM3.125 21H5.75V19.25C5.75 18.7859 5.56563 18.3408 5.23744 18.0126C4.90925 17.6844 4.46413 17.5 4 17.5H2.25V20.125C2.25 20.3571 2.34219 20.5796 2.50628 20.7437C2.67038 20.9078 2.89294 21 3.125 21ZM26.75 14V8.89875C27.262 9.07977 27.7053 9.41514 28.0187 9.85864C28.3321 10.3021 28.5003 10.8319 28.5 11.375V14H26.75ZM16.25 24.5V26.25H6.625C6.08193 26.2503 5.55214 26.0821 5.10864 25.7687C4.66514 25.4553 4.32977 25.012 4.14875 24.5H16.25ZM20.625 15.75C19.9288 15.75 19.2611 16.0266 18.7688 16.5188C18.2766 17.0111 18 17.6788 18 18.375V30.625C18 31.3212 18.2766 31.9889 18.7688 32.4812C19.2611 32.9734 19.9288 33.25 20.625 33.25H27.625C28.3212 33.25 28.9889 32.9734 29.4812 32.4812C29.9734 31.9889 30.25 31.3212 30.25 30.625V18.375C30.25 17.6788 29.9734 17.0111 29.4812 16.5188C28.9889 16.0266 28.3212 15.75 27.625 15.75H20.625ZM20.625 22.75H22.375C22.6071 22.75 22.8296 22.8422 22.9937 23.0063C23.1578 23.1704 23.25 23.3929 23.25 23.625C23.25 23.8571 23.1578 24.0796 22.9937 24.2437C22.8296 24.4078 22.6071 24.5 22.375 24.5H20.625C20.3929 24.5 20.1704 24.4078 20.0063 24.2437C19.8422 24.0796 19.75 23.8571 19.75 23.625C19.75 23.3929 19.8422 23.1704 20.0063 23.0063C20.1704 22.8422 20.3929 22.75 20.625 22.75ZM25.875 22.75H27.625C27.8571 22.75 28.0796 22.8422 28.2437 23.0063C28.4078 23.1704 28.5 23.3929 28.5 23.625C28.5 23.8571 28.4078 24.0796 28.2437 24.2437C28.0796 24.4078 27.8571 24.5 27.625 24.5H25.875C25.6429 24.5 25.4204 24.4078 25.2563 24.2437C25.0922 24.0796 25 23.8571 25 23.625C25 23.3929 25.0922 23.1704 25.2563 23.0063C25.4204 22.8422 25.6429 22.75 25.875 22.75ZM20.625 26.25H22.375C22.6071 26.25 22.8296 26.3422 22.9937 26.5063C23.1578 26.6704 23.25 26.8929 23.25 27.125C23.25 27.3571 23.1578 27.5796 22.9937 27.7437C22.8296 27.9078 22.6071 28 22.375 28H20.625C20.3929 28 20.1704 27.9078 20.0063 27.7437C19.8422 27.5796 19.75 27.3571 19.75 27.125C19.75 26.8929 19.8422 26.6704 20.0063 26.5063C20.1704 26.3422 20.3929 26.25 20.625 26.25ZM25.875 26.25H27.625C27.8571 26.25 28.0796 26.3422 28.2437 26.5063C28.4078 26.6704 28.5 26.8929 28.5 27.125C28.5 27.3571 28.4078 27.5796 28.2437 27.7437C28.0796 27.9078 27.8571 28 27.625 28H25.875C25.6429 28 25.4204 27.9078 25.2563 27.7437C25.0922 27.5796 25 27.3571 25 27.125C25 26.8929 25.0922 26.6704 25.2563 26.5063C25.4204 26.3422 25.6429 26.25 25.875 26.25ZM20.625 29.75H22.375C22.6071 29.75 22.8296 29.8422 22.9937 30.0063C23.1578 30.1704 23.25 30.3929 23.25 30.625C23.25 30.8571 23.1578 31.0796 22.9937 31.2437C22.8296 31.4078 22.6071 31.5 22.375 31.5H20.625C20.3929 31.5 20.1704 31.4078 20.0063 31.2437C19.8422 31.0796 19.75 30.8571 19.75 30.625C19.75 30.3929 19.8422 30.1704 20.0063 30.0063C20.1704 29.8422 20.3929 29.75 20.625 29.75ZM25.875 29.75H27.625C27.8571 29.75 28.0796 29.8422 28.2437 30.0063C28.4078 30.1704 28.5 30.3929 28.5 30.625C28.5 30.8571 28.4078 31.0796 28.2437 31.2437C28.0796 31.4078 27.8571 31.5 27.625 31.5H25.875C25.6429 31.5 25.4204 31.4078 25.2563 31.2437C25.0922 31.0796 25 30.8571 25 30.625C25 30.3929 25.0922 30.1704 25.2563 30.0063C25.4204 29.8422 25.6429 29.75 25.875 29.75ZM19.75 18.375C19.75 18.1429 19.8422 17.9204 20.0063 17.7563C20.1704 17.5922 20.3929 17.5 20.625 17.5H27.625C27.8571 17.5 28.0796 17.5922 28.2437 17.7563C28.4078 17.9204 28.5 18.1429 28.5 18.375V20.125C28.5 20.3571 28.4078 20.5796 28.2437 20.7437C28.0796 20.9078 27.8571 21 27.625 21H20.625C20.3929 21 20.1704 20.9078 20.0063 20.7437C19.8422 20.5796 19.75 20.3571 19.75 20.125V18.375Z" fill="black"/>
</svg>
