<svg width="32" height="32" viewBox="0 0 32 32" fill="none" xmlns="http://www.w3.org/2000/svg">
<path d="M11.1793 3.30561L10.0321 3.65121C9.01057 3.95925 8.09835 4.55269 7.40276 5.36167C6.70716 6.17065 6.25713 7.1615 6.10565 8.21761C5.63045 11.5264 6.69285 15.3952 9.25445 19.832C11.8096 24.2576 14.6225 27.1088 17.7185 28.3568C18.7132 28.7577 19.8022 28.8646 20.8559 28.6646C21.9096 28.4646 22.8837 27.9663 23.6625 27.2288L24.5297 26.4064C25.0928 25.8735 25.4432 25.1542 25.5159 24.3823C25.5886 23.6104 25.3786 22.8383 24.9249 22.2096L22.7553 19.2016C22.4619 18.7955 22.0489 18.4914 21.574 18.3319C21.0991 18.1723 20.5863 18.1654 20.1073 18.312L16.8256 19.3152L16.7409 19.3312C16.3793 19.384 15.544 18.6016 14.504 16.8C13.416 14.9152 13.192 13.8128 13.4913 13.528L15.1601 11.9712C15.7703 11.4023 16.1872 10.6567 16.3522 9.83891C16.5172 9.02112 16.422 8.17218 16.0801 7.41121L15.0208 5.05761C14.7023 4.34935 14.1372 3.78109 13.4307 3.45875C12.7241 3.1364 11.9229 3.08197 11.1793 3.30561ZM13.5648 5.71361L14.6208 8.06721C14.8265 8.52358 14.884 9.03291 14.7853 9.52365C14.6866 10.0144 14.4366 10.4619 14.0704 10.8032L12.3969 12.3616C11.3249 13.376 11.68 15.1072 13.12 17.6C14.4736 19.9456 15.7088 21.104 17.0368 20.9024L17.2353 20.8608L20.576 19.8416C20.7357 19.7926 20.9068 19.7947 21.0652 19.8478C21.2236 19.9009 21.3614 20.0022 21.4593 20.1376L23.6289 23.1456C23.856 23.4599 23.9613 23.8461 23.9251 24.2322C23.8889 24.6183 23.7137 24.9782 23.4321 25.2448L22.5633 26.0672C22.007 26.5936 21.3113 26.9493 20.5589 27.092C19.8064 27.2347 19.0288 27.1583 18.3184 26.872C15.6017 25.7776 13.0336 23.1744 10.6417 19.032C8.24325 14.88 7.27205 11.3488 7.68965 8.44481C7.79775 7.69029 8.11917 6.98237 8.61608 6.4044C9.11299 5.82642 9.76469 5.40245 10.4945 5.18241L11.6417 4.83681C12.0136 4.72504 12.4135 4.75237 12.7667 4.9137C13.12 5.07503 13.4025 5.35933 13.5616 5.71361" fill="black"/>
</svg>
