<svg width="30" height="30" viewBox="0 0 30 30" fill="none" xmlns="http://www.w3.org/2000/svg">
<path d="M13.5038 3.65939C13.9258 3.31371 14.4545 3.12482 15 3.12482C15.5455 3.12482 16.0742 3.31371 16.4963 3.65939L24.7306 10.3731C25.0108 10.6029 25.2364 10.892 25.3911 11.2196C25.5458 11.5473 25.6257 11.9052 25.625 12.2675V24.4456C25.625 25.7875 24.555 26.875 23.2344 26.875H19.8906C18.57 26.875 17.5 25.7875 17.5 24.4456V18.6794C17.5 18.2319 17.1438 17.8694 16.7031 17.8694H13.2969C12.8569 17.8694 12.5 18.2319 12.5 18.6794V24.4456C12.5 25.7875 11.43 26.875 10.1094 26.875H6.76563C5.44563 26.875 4.375 25.7875 4.375 24.4456V12.2675C4.37433 11.9052 4.45422 11.5473 4.60891 11.2196C4.76359 10.892 4.98919 10.6029 5.26938 10.3731L13.5038 3.65939ZM15.4988 4.92252C15.358 4.80736 15.1818 4.74445 15 4.74445C14.8182 4.74445 14.642 4.80736 14.5013 4.92252L6.26688 11.6356C6.17345 11.7123 6.09823 11.8087 6.04667 11.918C5.99511 12.0273 5.9685 12.1467 5.96875 12.2675V24.4456C5.96875 24.8931 6.325 25.2556 6.76563 25.2556H10.1094C10.5494 25.2556 10.9063 24.8931 10.9063 24.4456V18.6794C10.9063 17.3375 11.9769 16.25 13.2969 16.25H16.7031C18.0231 16.25 19.0938 17.3375 19.0938 18.6794V24.4456C19.0938 24.8931 19.45 25.2556 19.8906 25.2556H23.2344C23.6744 25.2556 24.0313 24.8931 24.0313 24.4456V12.2675C24.0316 12.1468 24.005 12.0274 23.9534 11.9182C23.9019 11.809 23.8266 11.7127 23.7331 11.6363L15.4988 4.92252Z" fill="black"/>
</svg>
