<svg width="16" height="16" viewBox="0 0 16 16" fill="none" xmlns="http://www.w3.org/2000/svg">
<path d="M15.4901 7.3H14.3301V13.65H1.67011V3.28H8.00011V2H1.67011C1.50854 2.00507 1.34962 2.04246 1.20274 2.10997C1.05586 2.17747 0.923995 2.27373 0.814933 2.39304C0.705871 2.51236 0.621822 2.65232 0.567749 2.80466C0.513677 2.957 0.490677 3.11862 0.500108 3.28V13.65C0.494768 13.8089 0.520803 13.9673 0.576726 14.1162C0.632649 14.265 0.717363 14.4014 0.826025 14.5175C0.934686 14.6336 1.06516 14.7271 1.21 14.7928C1.35483 14.8584 1.51118 14.8948 1.67011 14.9H14.3301C14.489 14.8948 14.6454 14.8584 14.7902 14.7928C14.9351 14.7271 15.0655 14.6336 15.1742 14.5175C15.2829 14.4014 15.3676 14.265 15.4235 14.1162C15.4794 13.9673 15.5054 13.8089 15.5001 13.65L15.4901 7.3Z" fill="#09368D"/>
<path d="M10.5605 2.86998L6.22048 7.21998L5.78048 7.65998L5.70048 7.73998L4.18048 10.9C4.0785 11.1029 4.04306 11.3327 4.07919 11.5569C4.11533 11.7811 4.22119 11.9881 4.38176 12.1487C4.54232 12.3093 4.7494 12.4151 4.97357 12.4513C5.19775 12.4874 5.42761 12.452 5.63048 12.35L8.77048 10.82L9.30048 10.29L9.73048 9.85998L14.0705 5.49998L14.5205 5.05998L14.7705 4.80998C15.1784 4.40127 15.4075 3.84742 15.4075 3.26998C15.4075 2.69254 15.1784 2.13868 14.7705 1.72998C14.3637 1.32615 13.8137 1.09967 13.2405 1.09998C12.6643 1.0992 12.1109 1.32556 11.7005 1.72998L11.0005 2.41998L10.5505 2.85998L10.5605 2.86998ZM5.51048 11L6.69048 8.56998L7.94048 9.82998L5.51048 11ZM7.51048 7.63998L11.4105 3.72998L12.7105 5.03998L8.85048 8.99998L7.51048 7.63998ZM13.1905 2.32998C13.3113 2.32957 13.431 2.35323 13.5426 2.39959C13.6542 2.44595 13.7555 2.51407 13.8405 2.59998C14.0133 2.77417 14.1103 3.0096 14.1103 3.25498C14.1103 3.50035 14.0133 3.73579 13.8405 3.90998L13.5905 4.14998L12.2905 2.84998L12.5405 2.59998C12.6307 2.51111 12.7391 2.44276 12.8582 2.39962C12.9773 2.35647 13.1043 2.33954 13.2305 2.34998L13.1905 2.32998Z" fill="#09368D"/>
</svg>
