<svg width="37" height="33" viewBox="0 0 37 33" fill="none" xmlns="http://www.w3.org/2000/svg">
<path d="M0.383969 32.9832C0.516544 33.0177 0.657391 32.9986 0.775983 32.9303C0.894574 32.8619 0.981352 32.7498 1.01751 32.6181C2.08376 28.6546 6.41708 27.6273 9.00713 27.0126C9.6562 26.859 10.1686 26.7373 10.502 26.5939C13.4523 25.3181 14.4139 23.2657 14.7017 21.7681C14.7188 21.679 14.7121 21.587 14.6821 21.5013C14.6521 21.4157 14.5999 21.3394 14.5309 21.2803C12.9947 19.9591 11.6986 17.9758 10.8808 15.6944C10.8578 15.6289 10.8215 15.5689 10.7742 15.518C9.69243 14.3464 9.07131 13.1077 9.07131 12.1207C9.07131 11.5441 9.28974 11.1574 9.78146 10.8655C9.85511 10.8216 9.91666 10.7602 9.96058 10.6867C10.0045 10.6133 10.0294 10.5301 10.033 10.4447C10.2618 5.19089 14.0175 1.05509 18.6241 1.02828L18.7348 1.0355C23.3642 1.09944 27.0961 5.32394 27.2296 10.652C27.2315 10.7248 27.2489 10.7964 27.2807 10.862C27.3125 10.9277 27.3579 10.9858 27.4139 11.0326C27.7379 11.3059 27.8891 11.6524 27.8891 12.1227C27.8891 12.9489 27.447 13.9648 26.6458 14.9817C26.6076 15.0306 26.5782 15.0857 26.5588 15.1446C25.7307 17.7602 24.2442 20.0694 22.4823 21.4824C22.4093 21.5412 22.3536 21.6185 22.3212 21.7062C22.2887 21.7939 22.2807 21.8887 22.298 21.9806C22.5858 23.4771 23.5475 25.5285 26.4978 26.8064C26.8466 26.9569 27.388 27.0745 28.0744 27.222C30.6385 27.7748 34.9294 28.702 35.9822 32.6181C35.9999 32.6835 36.0303 32.7449 36.0718 32.7986C36.1132 32.8523 36.1649 32.8973 36.2238 32.9311C36.2827 32.9649 36.3478 32.9868 36.4152 32.9956C36.4826 33.0044 36.5511 32.9998 36.6168 32.9822C36.6824 32.9646 36.744 32.9343 36.7979 32.893C36.8518 32.8517 36.897 32.8002 36.9309 32.7415C36.9649 32.6828 36.9868 32.618 36.9956 32.5508C37.0044 32.4836 36.9999 32.4154 36.9822 32.35C35.7659 27.8254 30.9046 26.7764 28.2938 26.2133C27.6882 26.0823 27.1655 25.9699 26.9108 25.8585C24.9853 25.0252 23.799 23.7556 23.3798 22.0786C25.1675 20.549 26.6634 18.1893 27.5185 15.5428C28.4263 14.367 28.9253 13.1562 28.9253 12.1217C28.9253 11.4317 28.7017 10.8562 28.2586 10.4065C28.0123 4.62673 23.8725 0.0752901 18.7348 0.00206274L18.5806 0C13.5361 0.0268156 9.37877 4.45862 9.01541 10.1384C8.36738 10.6128 8.03819 11.278 8.03819 12.1227C8.03819 13.3428 8.73074 14.8022 9.94295 16.141C10.7804 18.4337 12.0786 20.448 13.6241 21.8578C13.2069 23.541 12.0195 24.8148 10.0899 25.6492C9.84046 25.7575 9.34357 25.8761 8.768 26.0122C6.13758 26.6352 1.24318 27.7954 0.0175109 32.352C-0.017886 32.4842 0.000834679 32.6249 0.069556 32.7432C0.138277 32.8616 0.251372 32.9479 0.383969 32.9832Z" fill="black"/>
</svg>
